<?xml version="1.0" standalone="no"?>
<!DOCTYPE svg PUBLIC "-//W3C//DTD SVG 20010904//EN"
 "http://www.w3.org/TR/2001/REC-SVG-20010904/DTD/svg10.dtd">
<svg version="1.0" xmlns="http://www.w3.org/2000/svg"
 width="107.000000pt" height="107.000000pt" viewBox="0 0 107.000000 107.000000"
 preserveAspectRatio="xMidYMid meet">
<metadata>
Created by potrace 1.14, written by Peter Selinger 2001-2017
</metadata>
<g transform="translate(0.000000,107.000000) scale(0.100000,-0.100000)"
fill="#000000" stroke="none">
<path d="M80 530 l0 -390 100 0 100 0 0 197 c0 142 3 194 11 186 6 -6 50 -75
99 -154 l88 -144 54 -3 53 -3 95 161 95 161 6 -153 c4 -84 7 -174 8 -200 l1
-48 100 0 100 0 0 390 0 390 -94 0 -94 0 -127 -215 c-70 -118 -131 -217 -135
-220 -4 -3 -68 94 -141 215 l-134 220 -92 0 -93 0 0 -390z"/>
</g>
</svg>
